<svg version="1.1" xmlns="http://www.w3.org/2000/svg" viewBox="0 0 726.2112428798055 415.2680802040104" width="1452.422485759611" height="830.5361604080208">
  <!-- svg-source:excalidraw -->
  
  <defs>
    <style class="style-fonts">
      @font-face {
        font-family: "Virgil";
        src: url("https://excalidraw.com/Virgil.woff2");
      }
      @font-face {
        font-family: "Cascadia";
        src: url("https://excalidraw.com/Cascadia.woff2");
      }
    </style>
    
  </defs>
  <g stroke-linecap="round"><g transform="translate(691.4034532039032 -17.304347692009742) rotate(9.273190233955166 -173.23858668102207 140.45059008910357)" fill-rule="evenodd"><path d="M2.54 -0.73 L-343.8 171.94 L-311.07 279.01 L2.88 3.63" stroke="none" stroke-width="0" fill="#ffffff" fill-rule="evenodd"></path><path d="M-1.55 -2.23 C-121.4 60.27, -242.96 122.76, -344.57 172.53 M-0.33 -0.86 C-102.22 49.3, -204.73 102.05, -346.7 172.48 M-344.99 177 C-332.52 201.47, -323.65 234.28, -307.56 279.55 M-347.83 173.14 C-334.03 212.53, -319.74 252.86, -306.98 280 M-306.12 283.13 C-212.35 190.8, -113.49 101.03, 1.36 -0.68 M-307.03 282.15 C-223.43 205.07, -136.83 127.38, 0.97 -0.17 M0 0 C0 0, 0 0, 0 0 M0 0 C0 0, 0 0, 0 0" stroke="#1e1e1e" stroke-width="4" fill="none"></path></g></g><mask></mask><g stroke-linecap="round"><g transform="translate(691.6826519947413 -16.24083190939973) rotate(9.273190233955166 -173.32056973038766 141.51600760736596)" fill-rule="evenodd"><path d="M-346.36 173.27 C-346.36 173.27, -346.36 173.27, -346.36 173.27 M-346.36 173.27 C-346.36 173.27, -346.36 173.27, -346.36 173.27 M-343.2 192.77 C-334.74 178.33, -323.71 172.29, -310.42 156.19 M-339.2 192.43 C-328.93 178.87, -320.59 166.98, -310.67 156.16 M-333.3 208.88 C-319.97 194.33, -306.78 175.32, -274.84 131.76 M-334.51 206.73 C-316.36 187.46, -297.34 165.51, -271.07 136.77 M-325.69 225.85 C-301.86 190.23, -275.13 156.99, -235.65 119.35 M-325.91 226.21 C-295.3 187.76, -261.2 152.34, -234.3 116.25 M-322.47 245.66 C-279.18 194.76, -235.2 141.4, -196.36 97.43 M-321.7 242.7 C-276.81 187.65, -226.57 132.55, -195.28 96.66 M-318.83 258.97 C-269.9 205.91, -218.45 150.32, -161.49 82.53 M-315.4 259.32 C-283.59 220.29, -246.86 180.98, -158.26 78.77 M-309.22 274.18 C-263.54 222.2, -214.4 165.13, -119.94 58.76 M-309.19 276.81 C-265.39 230.01, -223.29 178.5, -119.67 59.38 M-298.8 286.9 C-222.69 203.2, -148.93 120.79, -82.56 40.18 M-298.81 289.14 C-230.42 211.29, -164.43 134.48, -83.81 42.63 M-193.75 195.24 C-159.13 145.34, -115.37 98.81, -44.47 20.16 M-193.84 194.03 C-153.61 147.88, -114.32 101.81, -45.08 24.5 M-86.91 95.6 C-64.02 67.68, -41.34 41.78, -6.6 2.97 M-89.44 97.35 C-55.25 60.77, -23.76 25.07, -7.35 4.27 M-307.19 281.75 C-307.19 281.75, -307.19 281.75, -307.19 281.75 M-307.19 281.75 C-307.19 281.75, -307.19 281.75, -307.19 281.75 M-296.95 271.49 C-304.62 269.1, -307.56 259.92, -320.36 250.73 M-293.33 271.73 C-304.48 262.12, -313.84 254.27, -320.37 250.17 M-282.46 261.85 C-293.87 249.33, -310.1 237.7, -327.37 220.6 M-281.92 258.52 C-294.44 252.76, -305.68 242.97, -329.49 218.37 M-275 245.58 C-294.88 227.98, -321.47 207.98, -338.22 192.73 M-270.49 250.12 C-293.49 228.16, -316.54 207.82, -340.79 189.86 M-261.85 234.77 C-290.43 210.06, -317.06 184.06, -339.85 168.49 M-261.8 239.54 C-286.91 214.59, -315.07 188.67, -341.82 166.59 M-251.02 224.82 C-269.14 210.78, -283.01 191.77, -324.79 161.85 M-247.71 228.75 C-270.89 206.76, -294.39 185.34, -326.22 157.88 M-239.15 217.99 C-255.54 200.29, -278.21 179.03, -308.25 152.45 M-237.63 217.78 C-258.92 197.22, -284.13 176.26, -309.47 153.21 M-227.1 207.54 C-244.57 186.86, -261.9 171.63, -296.63 143.29 M-224.93 204.7 C-244.13 188.14, -262.81 172.12, -294.16 145.54 M-214.82 198.68 C-232.87 182.47, -248.9 163.23, -275.62 135.17 M-210.42 196.14 C-232.02 179.52, -248.58 162.15, -280.67 137.5 M-201.01 184.75 C-215.05 166.68, -232.15 156.99, -266.72 125.55 M-200.74 183.2 C-226.19 163.3, -248.33 143.01, -264.5 129.91 M-190.97 170.71 C-199.03 163.15, -219.76 149.79, -251.93 119.43 M-188.84 174.68 C-208.54 157.27, -232 136.49, -247.54 120.33 M-175.98 162.12 C-189.57 152.43, -199.58 144.04, -229.87 113.58 M-176.13 161.62 C-195.97 144.63, -212.04 131.64, -234.93 113 M-165.16 148.59 C-180.64 133.1, -196.83 120.23, -216.59 102.69 M-164.96 150.59 C-182.36 137.73, -195.29 122.39, -218.6 104.67 M-153.15 144.04 C-170.27 126.04, -182.73 119.53, -197.81 95.66 M-152.99 139.51 C-168.15 127.07, -189.58 109.56, -202.06 98.6 M-139.66 126.89 C-161.95 113.9, -176.86 96.61, -189.45 86.44 M-141.5 127.59 C-152.87 119.76, -166.01 110.31, -187.78 91.02 M-125.38 115.59 C-141.13 106.9, -161.92 88.79, -174.26 84.83 M-129.89 118.55 C-143.26 104.35, -158.93 93.69, -170.41 83.73 M-119.38 105.51 C-124.38 98, -133.13 95.59, -153.26 73.49 M-115.84 107.19 C-127.31 102.11, -134.17 92.87, -154.91 76.67 M-102.94 96.5 C-119.95 87.39, -130.12 72.46, -138.32 62.74 M-105.79 98.6 C-113.23 91.11, -120.71 81.7, -141.87 68.5 M-97.21 89.05 C-106.42 79.18, -116.94 66.83, -124.77 61.4 M-95.28 86.07 C-103.01 75.98, -112.02 69.68, -122.75 59.1 M-82.05 77.22 C-89.04 64.48, -103.86 56.91, -107.56 53.1 M-82.54 75.65 C-90.51 65.85, -99.12 59.62, -108.78 51.55 M-71.71 60.81 C-81.18 58.95, -82.53 53.93, -90.12 42.37 M-68.77 64.07 C-77.74 58.3, -86.55 52.14, -94.44 41.93 M-54.62 56.9 C-65.48 44.13, -67.32 44.95, -76.48 38.96 M-56.69 53.88 C-64.05 47.2, -73.14 38.12, -78.35 37.32 M-48.87 44.75 C-51.78 39.72, -53.72 36.64, -59.91 28.64 M-46.65 44.16 C-51.35 37.07, -54.9 33.8, -62.53 26.27 M-34 33.06 C-39.46 24.48, -43 25.54, -47.42 20.13 M-34.98 29.9 C-37.9 29.89, -38.29 26.86, -45.91 19.57 M-19.83 18.67 C-26.02 16.72, -30.68 12.28, -32.22 10.22 M-22.79 21.91 C-24.5 17.73, -28.46 14.45, -30.81 12.99 M-9.89 9.73 C-11.39 8.85, -14.18 6.86, -15.55 4.82 M-10.7 9.12 C-12.27 9.03, -13.01 7.47, -15.87 5.43" stroke="#1e1e1e" stroke-width="2" fill="none"></path><path d="M1.82 -0.13 C-81.56 40.27, -165.17 81.48, -347.08 174.31 M0.87 -0.73 C-103.47 47.48, -206.09 98.62, -346.75 174.4 M-348.46 171.37 C-332.12 207.96, -325.11 240.12, -307 284.14 M-347.24 173.46 C-336.46 210.79, -321.4 244.45, -307.16 282.57 M-305.22 280.13 C-222.58 201.27, -135.96 119.51, -1.91 -1.1 M-306.41 281.23 C-213.86 195.18, -117.64 108.04, -1.05 0.54 M0 0 C0 0, 0 0, 0 0 M0 0 C0 0, 0 0, 0 0" stroke="#1e1e1e" stroke-width="4" fill="none"></path></g></g><mask></mask><g stroke-linecap="round"><g transform="translate(701.1420122313061 -23.733021939556693) rotate(9.273190233955166 -215.72280195150597 86.82615263826119)" fill-rule="evenodd"><path d="M-1.95 0.21 L-431.68 129.24 L-349.55 171.45 L1.79 -1.45" stroke="none" stroke-width="0" fill="#ffffff" fill-rule="evenodd"></path><path d="M-0.05 0.79 C-98.29 31.5, -196.63 60.83, -430.37 130.21 M-0.3 -0.12 C-106.6 33.2, -212.43 65.4, -430.33 130.23 M-431.74 131.65 C-404.57 142.68, -379.55 156.44, -346.68 173.78 M-430.7 129.28 C-409.5 141.15, -390.44 151.63, -347.46 172.94 M-348.75 173.19 C-216.1 105.77, -85.7 39.29, -0.6 0.09 M-348.16 172.58 C-241.25 119.02, -134.88 64.96, 0.3 0.33 M0 0 C0 0, 0 0, 0 0 M0 0 C0 0, 0 0, 0 0" stroke="#1e1e1e" stroke-width="4" fill="none"></path></g></g><mask></mask><g stroke-linecap="round"><g transform="translate(696.27380729063 -13.494161543738755) rotate(9.273190233955166 -151.60711678145822 129.50739337629534)" fill-rule="evenodd"><path d="M0.21 -0.88 L-179.49 256.33 L-305.47 203.39 L-1.45 -1.66" stroke="none" stroke-width="0" fill="#ffffff" fill-rule="evenodd"></path><path d="M1.16 0.58 C-44.37 67.1, -90.99 133.53, -178.54 257.24 M-0.18 -0.44 C-40.23 58.2, -81.03 118.67, -178.52 258.01 M-177.08 259.46 C-215.79 242.51, -251.63 225.51, -303.15 200.5 M-179.46 258.85 C-220.45 238.7, -262.71 220.51, -303.99 202.38 M-303.73 202.77 C-187.48 125.01, -71.06 46.45, 0.09 0.08 M-304.37 201.5 C-215.5 143.26, -127.81 85.06, 0.35 0.42 M0 0 C0 0, 0 0, 0 0 M0 0 C0 0, 0 0, 0 0" stroke="#1e1e1e" stroke-width="4" fill="none"></path></g></g><mask></mask><g stroke-linecap="round"><g transform="translate(378.3697240321553 167.96940165841897) rotate(9.273190233955166 27.9097345287787 39.13539709520751)" fill-rule="evenodd"><path d="M0 0 L-8.07 78.27 L63.89 29.26 L0 0" stroke="none" stroke-width="0" fill="#ffffff" fill-rule="evenodd"></path><path d="M0 0 C-3.04 29.53, -6.09 59.06, -8.07 78.27 M0 0 C-3.02 29.3, -6.04 58.6, -8.07 78.27 M-8.07 78.27 C9.72 66.15, 27.51 54.04, 63.89 29.26 M-8.07 78.27 C10.31 65.76, 28.68 53.24, 63.89 29.26 M63.89 29.26 C38.93 17.83, 13.97 6.4, 0 0 M63.89 29.26 C40.17 18.4, 16.45 7.54, 0 0 M0 0 C0 0, 0 0, 0 0 M0 0 C0 0, 0 0, 0 0" stroke="#1e1e1e" stroke-width="4" fill="none"></path></g></g><mask></mask><g stroke-linecap="round"><g transform="translate(380.0463138998857 168.75749262196268) rotate(9.273190233955166 27.9097345287787 39.13539709520751)" fill-rule="evenodd"><path d="M0 0 C0 0, 0 0, 0 0 M0 0 C0 0, 0 0, 0 0 M-3.01 27.86 C3.51 20.35, 10.04 12.84, 15.36 6.72 M-3.01 27.86 C4.22 19.54, 11.45 11.22, 15.36 6.72 M-6.03 55.71 C5.73 42.19, 17.48 28.67, 30.06 14.2 M-6.03 55.71 C2.77 45.58, 11.58 35.46, 30.06 14.2 M-5.76 79.79 C10.5 61.08, 26.77 42.37, 45.41 20.92 M-5.76 79.79 C12.34 58.97, 30.44 38.14, 45.41 20.92 M45.68 45.01 C51.42 38.4, 57.17 31.78, 60.77 27.65 M45.68 45.01 C50.41 39.56, 55.14 34.12, 60.77 27.65 M-8.26 78.1 C-8.26 78.1, -8.26 78.1, -8.26 78.1 M-8.26 78.1 C-8.26 78.1, -8.26 78.1, -8.26 78.1 M5.25 68.65 C2.91 66.61, 0.57 64.58, -6.07 58.81 M5.25 68.65 C2 65.82, -1.26 62.99, -6.07 58.81 M19.52 59.85 C14.3 55.31, 9.07 50.77, -3.87 39.51 M19.52 59.85 C12.27 53.55, 5.03 47.25, -3.87 39.51 M33.04 50.4 C20.45 39.46, 7.86 28.51, -1.68 20.22 M33.04 50.4 C20.72 39.7, 8.41 28.99, -1.68 20.22 M46.55 40.95 C34.36 30.35, 22.16 19.75, -0.24 0.27 M46.55 40.95 C32.1 28.39, 17.65 15.82, -0.24 0.27 M60.07 31.5 C46.32 19.55, 32.57 7.59, 10.26 -11.8 M60.07 31.5 C47 20.14, 33.93 8.78, 10.26 -11.8" stroke="#1e1e1e" stroke-width="2" fill="none"></path><path d="M0 0 C-2.38 23.06, -4.75 46.11, -8.07 78.27 M0 0 C-1.92 18.6, -3.83 37.2, -8.07 78.27 M-8.07 78.27 C10.14 65.87, 28.34 53.47, 63.89 29.26 M-8.07 78.27 C14.24 63.07, 36.56 47.88, 63.89 29.26 M63.89 29.26 C49.55 22.7, 35.21 16.13, 0 0 M63.89 29.26 C47.88 21.93, 31.87 14.6, 0 0 M0 0 C0 0, 0 0, 0 0 M0 0 C0 0, 0 0, 0 0" stroke="#1e1e1e" stroke-width="4" fill="none"></path></g></g><mask></mask><g stroke-linecap="round"><g transform="translate(415.4754209532616 185.81366821562642) rotate(9.273190233955166 -21.489820856661254 25.54450403716328)"><path d="M0 0 C-16.4 19.49, -32.8 38.98, -42.98 51.09 M0 0 C-11.8 14.02, -23.6 28.05, -42.98 51.09" stroke="#1e1e1e" stroke-width="2" fill="none"></path></g></g><mask></mask><g stroke-linecap="round"><g transform="translate(406.2923352231219 176.70223618414275) rotate(9.273190233955166 -13.58318865468209 15.205061926882763)"><path d="M0 0 C-9.26 10.37, -18.52 20.73, -27.17 30.41 M0 0 C-6.46 7.24, -12.93 14.47, -27.17 30.41" stroke="#1e1e1e" stroke-width="2" fill="none"></path></g></g><mask></mask><g stroke-linecap="round"><g transform="translate(435.23649845017235 194.84723701640405) rotate(9.273190233955166 -13.58318865468209 15.205061926882763)"><path d="M0 0 C-8.53 9.55, -17.07 19.1, -27.17 30.41 M0 0 C-6.17 6.91, -12.34 13.82, -27.17 30.41" stroke="#1e1e1e" stroke-width="2" fill="none"></path></g></g><mask></mask><g stroke-linecap="round"><g transform="translate(392.64677825749277 169.4481405082497) rotate(9.273190233955166 -4.054683180502025 4.4601514985520225)"><path d="M0 0 C-2.83 3.11, -5.66 6.22, -8.11 8.92 M0 0 C-1.98 2.18, -3.96 4.36, -8.11 8.92" stroke="#1e1e1e" stroke-width="2" fill="none"></path></g></g><mask></mask><g stroke-linecap="round"><g transform="translate(382.95622111307466 175.34179108713624) rotate(9.273190233955166 17.840605994209454 19.462479266410355)"><path d="M0 0 C9.59 10.47, 19.19 20.93, 35.68 38.92 M0 0 C9.49 10.35, 18.98 20.71, 35.68 38.92" stroke="#1e1e1e" stroke-width="2" fill="none"></path></g></g><mask></mask><g stroke-linecap="round"><g transform="translate(378.1006306336426 197.51152821479127) rotate(9.273190233955166 13.177720336631864 11.555847064430964)"><path d="M0 0 C9.08 7.97, 18.17 15.93, 26.36 23.11 M0 0 C10.48 9.19, 20.96 18.38, 26.36 23.11" stroke="#1e1e1e" stroke-width="2" fill="none"></path></g></g><mask></mask><g stroke-linecap="round"><g transform="translate(374.80138249297033 214.27332710228075) rotate(9.273190233955166 6.284758929778263 6.892961406853601)"><path d="M0 0 C3.7 4.06, 7.41 8.13, 12.57 13.79 M0 0 C3.68 4.04, 7.36 8.07, 12.57 13.79" stroke="#1e1e1e" stroke-width="2" fill="none"></path></g></g><mask></mask><g stroke-linecap="round"><g transform="translate(417.91755098884187 190.5717235049906) rotate(9.273190233955166 9.12303715612984 8.31210052002939)"><path d="M0 0 C4.48 4.08, 8.97 8.17, 18.25 16.62 M0 0 C5.46 4.98, 10.92 9.95, 18.25 16.62" stroke="#1e1e1e" stroke-width="2" fill="none"></path></g></g><mask></mask><g stroke-linecap="round"><g transform="translate(599.108580998357 47.223724066320756) rotate(9.273190233955166 -14.191391131757655 18.854276789335017)"><path d="M0 0 C-6.53 8.68, -13.06 17.36, -28.38 37.71 M0 0 C-8.33 11.06, -16.65 22.13, -28.38 37.71" stroke="#1e1e1e" stroke-width="2" fill="none"></path></g></g><mask></mask><g stroke-linecap="round"><g transform="translate(633.6359461561633 39.570434906934224) rotate(9.273190233955166 -4.054683180502252 7.095695565878714)"><path d="M0 0 C-3.04 5.31, -6.07 10.62, -8.11 14.19 M0 0 C-2.01 3.51, -4.01 7.02, -8.11 14.19" stroke="#1e1e1e" stroke-width="2" fill="none"></path></g></g><mask></mask><g stroke-linecap="round"><g transform="translate(642.6130117881398 44.956236566163625) rotate(9.273190233955166 0.8109366361004504 -5.068353975627588)"><path d="M0 0 C0.39 -2.41, 0.77 -4.82, 1.62 -10.14 M0 0 C0.41 -2.56, 0.82 -5.13, 1.62 -10.14" stroke="#1e1e1e" stroke-width="2" fill="none"></path></g></g><mask></mask><g stroke-linecap="round"><g transform="translate(519.2716842908494 101.99631464519098) rotate(9.273190233955166 19.462479266410355 -22.300757492761704)"><path d="M0 0 C10.69 -12.24, 21.37 -24.49, 38.92 -44.6 M0 0 C14.38 -16.47, 28.75 -32.94, 38.92 -44.6" stroke="#1e1e1e" stroke-width="2" fill="none"></path></g></g><mask></mask><g stroke-linecap="round"><g transform="translate(512.1662841956327 70.67930767245207) rotate(9.273190233955166 -26.152706514238844 31.22106048986643)"><path d="M0 0 C-12.45 14.86, -24.89 29.72, -52.31 62.44 M0 0 C-19.46 23.23, -38.92 46.46, -52.31 62.44" stroke="#1e1e1e" stroke-width="2" fill="none"></path></g></g><mask></mask><g stroke-linecap="round"><g transform="translate(475.5632285063334 80.2790893973829) rotate(9.273190233955166 -39.93862932794582 43.38511003137273)"><path d="M0 0 C-18.15 19.71, -36.29 39.43, -79.88 86.77 M0 0 C-20.6 22.38, -41.2 44.76, -79.88 86.77" stroke="#1e1e1e" stroke-width="2" fill="none"></path></g></g><mask></mask><g stroke-linecap="round"><g transform="translate(569.6480422534164 60.11100488546481) rotate(9.273190233955166 7.298429724903826 4.460151498552477)"><path d="M0 0 C3.57 2.18, 7.14 4.36, 14.6 8.92 M0 0 C5.57 3.4, 11.14 6.81, 14.6 8.92" stroke="#1e1e1e" stroke-width="2" fill="none"></path></g></g><mask></mask><g stroke-linecap="round"><g transform="translate(590.3077844530808 58.598584008038415) rotate(9.273190233955166 23.719896605937492 -8.51483467905473)"><path d="M0 0 C3.99 1.73, 7.98 3.45, 15 6.49 M0 0 C4.57 1.97, 9.13 3.95, 15 6.49 M15 6.49 C18.05 4.29, 21.1 2.1, 25.14 -0.81 M15 6.49 C17.14 4.95, 19.28 3.41, 25.14 -0.81 M25.14 -0.81 C23.01 -2.53, 20.88 -4.25, 14.6 -9.33 M25.14 -0.81 C21.54 -3.72, 17.94 -6.63, 14.6 -9.33 M14.6 -9.33 C16.85 -10.04, 19.11 -10.75, 22.3 -11.76 M14.6 -9.33 C16.27 -9.85, 17.94 -10.38, 22.3 -11.76 M22.3 -11.76 C24.12 -9.94, 25.95 -8.11, 30.41 -3.65 M22.3 -11.76 C24.38 -9.68, 26.47 -7.59, 30.41 -3.65 M30.41 -3.65 C32.53 -5.28, 34.66 -6.91, 40.95 -11.76 M30.41 -3.65 C32.57 -5.31, 34.73 -6.97, 40.95 -11.76 M40.95 -11.76 C37.69 -13.94, 34.42 -16.11, 30 -19.06 M40.95 -11.76 C38.11 -13.65, 35.27 -15.55, 30 -19.06 M30 -19.06 C35.01 -20.34, 40.01 -21.62, 47.44 -23.52 M30 -19.06 C35.24 -20.4, 40.47 -21.74, 47.44 -23.52" stroke="#1e1e1e" stroke-width="2" fill="none"></path></g></g><mask></mask><g stroke-linecap="round"><g transform="translate(278.95196144929787 68.76726576374313) rotate(9.273190233955166 -3.411481789263462 4.616208631229483)"><path d="M-0.08 -0.63 C-3.27 4.73, -4.55 7.3, -5.82 9.86 M0.22 -0.27 C-2.35 2.9, -4.35 7.02, -7.04 9.82" stroke="#1e1e1e" stroke-width="2" fill="none"></path></g></g><mask></mask><g stroke-linecap="round"><g transform="translate(286.8608673745539 69.85000415300237) rotate(9.273190233955166 -3.526226619306499 4.978972761702607)"><path d="M-0.63 -0.56 C-1.16 3.73, -4.48 6.71, -6.74 10.52 M-0.27 0.06 C-2.91 3.79, -4.57 6.31, -6.79 10.05" stroke="#1e1e1e" stroke-width="2" fill="none"></path></g></g><mask></mask><g stroke-linecap="round"><g transform="translate(296.1158989151795 68.11860710143537) rotate(9.273190233955166 -3.244705415459066 4.808853062343587)"><path d="M-0.56 0.83 C-1.18 2.4, -3.1 5.89, -6.08 10.21 M0.06 -0.59 C-1.13 2.38, -3.54 4.78, -6.55 9.71" stroke="#1e1e1e" stroke-width="2" fill="none"></path></g></g><mask></mask><g stroke-linecap="round"><g transform="translate(305.05386709449294 67.58550816350999) rotate(9.273190233955166 -4.799234543609828 8.192762251458362)"><path d="M1.27 1.32 C-3.99 5.82, -6.28 9.79, -10.1 13.9 M-0.91 0.76 C-3.66 4.65, -7.28 10.43, -10.87 15.62" stroke="#1e1e1e" stroke-width="2" fill="none"></path></g></g><mask></mask><g stroke-linecap="round"><g transform="translate(315.93889192388406 64.85002220301749) rotate(9.273190233955166 -7.146308814613576 10.993810954037372)"><path d="M1.44 -0.84 C-2.09 5.62, -6.15 11.63, -15.73 22.7 M0.83 0.02 C-4.14 5.47, -7.05 10.9, -13.85 22.83" stroke="#1e1e1e" stroke-width="2" fill="none"></path></g></g><mask></mask><g stroke-linecap="round"><g transform="translate(326.0360025674199 62.99509338728922) rotate(9.273190233955166 -8.112188328043203 12.986651358679637)"><path d="M-0.84 1.63 C-4.03 7.76, -7.75 11.92, -16.24 24.6 M0.02 -0.42 C-5.51 8.45, -10.96 16.73, -16.12 26.4" stroke="#1e1e1e" stroke-width="2" fill="none"></path></g></g><mask></mask><g stroke-linecap="round"><g transform="translate(331.3591117726951 65.90204485027334) rotate(9.273190233955166 -8.121742666219006 12.850246231090978)"><path d="M1.63 0.09 C-4.9 10.01, -13.46 19.5, -17.88 25.69 M-0.42 0.01 C-2.8 4.96, -5.84 11.13, -16.08 24.73" stroke="#1e1e1e" stroke-width="2" fill="none"></path></g></g><mask></mask><g stroke-linecap="round"><g transform="translate(490.90286635331904 207.16124068528825) rotate(9.273190233955166 -5.672206967233478 7.840167443441715)"><path d="M0.08 1.11 C-3.43 4.73, -7.35 10.59, -10.53 13.4 M0.01 0.38 C-4.27 6.52, -7.4 12.48, -11.43 15.3" stroke="#1e1e1e" stroke-width="2" fill="none"></path></g></g><mask></mask><g stroke-linecap="round"><g transform="translate(496.87914496073245 209.87965354817698) rotate(9.273190233955166 -5.727570022066175 8.312897318969135)"><path d="M1.11 0.62 C-3.67 4.63, -6.24 8.05, -12.56 16.79 M0.38 -0.16 C-2.57 5.41, -5.69 8.49, -10.66 16.11" stroke="#1e1e1e" stroke-width="2" fill="none"></path></g></g><mask></mask><g stroke-linecap="round"><g transform="translate(498.0452992670421 218.13204560799568) rotate(9.273190233955166 -4.6137469688255806 7.1230263106911025)"><path d="M0.62 -1.03 C-3.39 5.05, -7.99 9.85, -9.17 15.27 M-0.16 0.73 C-1.95 4.81, -6.23 7.96, -9.85 15.22" stroke="#1e1e1e" stroke-width="2" fill="none"></path></g></g><mask></mask><g stroke-linecap="round"><g transform="translate(502.1581356893157 221.61370814224028) rotate(9.273190233955166 -5.008290133204582 7.944423978733539)"><path d="M-1.03 0.69 C-4 4.86, -8.28 10.86, -10.69 14.45 M0.73 0.81 C-2.32 3.86, -6.33 10.03, -10.74 15.2" stroke="#1e1e1e" stroke-width="2" fill="none"></path></g></g><mask></mask><g stroke-linecap="round"><g transform="translate(482.05254377979827 207.28028557702737) rotate(9.273190233955166 -3.1110787074126165 4.6585310562718405)"><path d="M0.43 -0.52 C-2.09 2.35, -3.48 7.05, -6.73 9.84 M0.5 0.53 C-2.58 3.43, -3.72 6.73, -6.26 9.31" stroke="#1e1e1e" stroke-width="2" fill="none"></path></g></g><mask></mask><g stroke-linecap="round"><g transform="translate(475.66176016155487 209.01510920599094) rotate(9.273190233955166 -2.5895378546019856 3.4858327777228624)"><path d="M-0.39 0.09 C-2.62 3.06, -3.48 4.28, -5.18 7.3 M0.39 -0.33 C-1.38 2.41, -2.89 3.95, -5.57 6.73" stroke="#1e1e1e" stroke-width="2" fill="none"></path></g></g><mask></mask><g stroke-linecap="round"><g transform="translate(469.9931628751269 208.02834772832466) rotate(9.273190233955166 -1.5933678421667992 2.273949576212999)"><path d="M0.06 -0.59 C-0.24 1.25, -1.75 2.5, -2.85 5.01 M-0.23 0.02 C-0.85 1.96, -2.31 3.63, -3.25 5.14" stroke="#1e1e1e" stroke-width="2" fill="none"></path></g></g><mask></mask><g stroke-linecap="round"><g transform="translate(432.993634242001 96.68632167350188) rotate(9.273190233955166 -23.95455558582944 28.198253723070366)"><path d="M-1.98 1.66 C-16.26 17.37, -32.33 37.2, -47.98 55.46 M0.07 0.94 C-17.96 20.44, -37.24 40.82, -47.55 53.96" stroke="#1e1e1e" stroke-width="2" fill="none"></path></g></g><mask></mask><g stroke-linecap="round"><g transform="translate(310.06656917926057 121.28514319171245) rotate(9.273190233955166 -88.17233749774618 57.60286785451376)"><path d="M-2.77 2.33 C-31.74 20.8, -146.34 92.58, -175.06 111.1 M0.93 1.12 C-28.3 19.94, -147.64 96.19, -177.27 114.09" stroke="#1e1e1e" stroke-width="2" fill="none"></path></g></g><mask></mask><g stroke-linecap="round"><g transform="translate(110.0893695658051 225.27076578357128) rotate(9.273190233955166 -26.53359863087894 14.97034251536411)"><path d="M2.33 0.05 C-6.47 5.29, -43.76 24, -52.51 28.69 M0.14 -2.39 C-9.16 3.58, -46.81 26.76, -55.39 32.33" stroke="#1e1e1e" stroke-width="2" fill="none"></path></g></g><mask></mask><g stroke-linecap="round"><g transform="translate(37.2519895057776 256.45176137425597) rotate(9.273190233955166 -13.127981015389423 7.044191777472179)"><path d="M0.05 -1.19 C-3.5 1.49, -19.97 14.95, -24.08 18.39 M-3.37 -4.3 C-7.04 -1.25, -22.42 10.76, -26.3 13.99" stroke="#1e1e1e" stroke-width="2" fill="none"></path></g></g><mask></mask><g stroke-linecap="round"><g transform="translate(283.1294321714886 146.42305995662264) rotate(9.273190233955166 -124.74461660205247 102.63981286531043)"><path d="M-1.19 0.02 C-43.45 34.07, -209.73 169.8, -251.23 204.34 M3.36 -2.43 C-39.38 32.05, -210.49 173.46, -252.85 207.71" stroke="#1e1e1e" stroke-width="2" fill="none"></path></g></g><mask></mask><g stroke-linecap="round"><g transform="translate(345.3436082517878 264.4376264454959) rotate(9.273190233955166 -71.42142323725398 76.11391509029272)"><path d="M0.02 1.14 C-23.38 26.82, -117.45 127.58, -140.37 152.94 M-3.41 -0.72 C-27.23 24.32, -120.45 124.14, -142.87 149.12" stroke="#1e1e1e" stroke-width="2" fill="none"></path></g></g><mask></mask><g stroke-linecap="round"><g transform="translate(519.9553368528277 215.60889079058916) rotate(9.273190233955166 -40.52785008063006 80.8078106857688)"><path d="M1.14 -0.49 C-12.19 26.98, -67.49 138.04, -81.14 164.83 M-1.69 -3.22 C-15.09 23.51, -68.94 133.56, -82.19 161.14" stroke="#1e1e1e" stroke-width="2" fill="none"></path></g></g><mask></mask><g stroke-linecap="round"><g transform="translate(431.2691709921801 222.49592128623408) rotate(9.273190233955166 -28.834154629882505 29.30758189623384)"><path d="M-0.49 2.19 C-9.87 11.62, -46.21 48.85, -56.26 57.71 M-4.19 0.91 C-13.73 9.51, -48.69 44.46, -57.18 54.07" stroke="#1e1e1e" stroke-width="2" fill="none"></path></g></g><mask></mask><g stroke-linecap="round"><g transform="translate(402.30976788359067 266.04764388656713) rotate(9.273190233955166 -7.674167359447438 13.645483198513148)"><path d="M2.19 2.43 C-0.78 6.43, -13.14 19.22, -16.68 23.53 M-0.07 1.28 C-3.28 5.62, -14.09 22.2, -17.54 26.01" stroke="#1e1e1e" stroke-width="2" fill="none"></path></g></g><mask></mask><g stroke-linecap="round"><g transform="translate(368.5451863757444 299.58324131482186) rotate(9.273190233955166 -7.059884584811243 12.432856035158693)"><path d="M2.43 2.54 C-0.25 5.46, -14.18 16.87, -16.55 19.68 M0.3 1.45 C-1.45 4.67, -9.21 19.91, -11.3 23.42" stroke="#1e1e1e" stroke-width="2" fill="none"></path></g></g><mask></mask><g stroke-linecap="round"><g transform="translate(340.23977017730203 321.486838918775) rotate(9.273190233955166 -2.484686235032086 6.120295386853513)"><path d="M2.54 -2.12 C1.28 -0.13, -4.01 12.07, -5.37 14.36 M0.47 2.91 C-1.34 5.39, -6.18 8.81, -7.51 10.77" stroke="#1e1e1e" stroke-width="2" fill="none"></path></g></g><mask></mask><g stroke-linecap="round"><g transform="translate(262.7301481878858 89.02367981752468) rotate(9.273190233955166 -30.9711308373262 11.594900264544549)"><path d="M-2.12 0.19 C-13.03 3.39, -52.44 18.58, -63.06 21.78 M1.93 -2.18 C-9.34 2.71, -52.27 21.48, -63.87 25.37" stroke="#1e1e1e" stroke-width="2" fill="none"></path></g></g><mask></mask><g stroke-linecap="round"><g transform="translate(170.09268449978117 99.21056352606047) rotate(9.273190233955166 -53.34199688140552 19.922233330093604)"><path d="M0.19 2.62 C-5.07 5.21, -11.16 7.88, -29 13.43 C-46.84 18.98, -94.34 31.91, -106.87 35.93 M-3.15 1.58 C-9.02 4.83, -14.9 10.88, -31.28 16.99 C-47.65 23.1, -89.36 34.39, -101.39 38.26" stroke="#1e1e1e" stroke-width="2" fill="none"></path></g></g><mask></mask><g stroke-linecap="round"><g transform="translate(174.70191890855222 130.03850968496045) rotate(9.273190233955166 -23.361687673973847 10.33508225765604)"><path d="M2.62 -0.07 C-4.86 3.39, -38.54 17.01, -47.04 20.97 M0.6 -2.58 C-7.08 1.13, -40.76 18.34, -49.35 23.25" stroke="#1e1e1e" stroke-width="2" fill="none"></path></g></g><mask></mask><g stroke-linecap="round"><g transform="translate(109.81103313981839 157.7890014515997) rotate(9.273190233955166 -16.48264641988021 7.629222164881867)"><path d="M-0.07 -0.13 C-5.58 1.95, -27.87 12.27, -32.89 15.07 M-3.55 -2.66 C-8.24 0.97, -23.12 14.16, -27.84 17.92" stroke="#1e1e1e" stroke-width="2" fill="none"></path></g></g><mask></mask><g stroke-linecap="round"><g transform="translate(60.075578210849926 171.00390069467403) rotate(9.273190233955166 -11.641389110162663 6.672123682349138)"><path d="M-0.13 -2.49 C-4.42 -0.46, -19.59 9.73, -23.16 12.09 M-3.64 2.33 C-7.24 4.87, -14.26 13.78, -17.53 15.83" stroke="#1e1e1e" stroke-width="2" fill="none"></path></g></g><mask></mask><g stroke-linecap="round"><g transform="translate(344.2472265450033 157.40516213299725) rotate(9.273190233955166 -26.109588634475813 25.174624917393658)"><path d="M-2.49 -1.43 C-11.05 6.6, -43.22 39.51, -51.45 48.06 M1.36 3.96 C-7.55 12.5, -44.38 44.87, -53.58 51.78" stroke="#1e1e1e" stroke-width="2" fill="none"></path></g></g><mask></mask><g stroke-linecap="round"><g transform="translate(271.5727692322439 211.41709803836056) rotate(9.273190233955166 -8.110953667787498 8.802839776481505)"><path d="M-0.61 0.09 C-3.37 3.11, -14.05 14.29, -16.58 17.02 M1.26 -0.91 C-1.64 2.4, -14.59 15.44, -17.49 18.51" stroke="#1e1e1e" stroke-width="2" fill="none"></path></g></g><mask></mask><g stroke-linecap="round"><g transform="translate(490.24081937681876 237.7505309100684) rotate(9.273190233955166 -12.43947797801161 18.89183358543528)"><path d="M0.09 0.08 C-3.73 6.63, -19.88 32.59, -23.97 38.71 M-1.32 -0.93 C-5.21 5.35, -20.93 30.63, -24.97 37.04" stroke="#1e1e1e" stroke-width="2" fill="none"></path></g></g><mask></mask><g stroke-linecap="round"><g transform="translate(451.9997499048209 285.83918346463633) rotate(9.273190233955166 -8.518960940143415 10.787205672862228)"><path d="M0.08 -0.09 C-2.59 3.48, -13.51 17.87, -16.62 21.54 M-1.34 -1.19 C-4.04 2.53, -14.64 18.71, -17.12 22.76" stroke="#1e1e1e" stroke-width="2" fill="none"></path></g></g><mask></mask><g stroke-linecap="round"><g transform="translate(555.113733563614 217.27104548058605) rotate(9.273190233955166 -9.474319358624598 19.798586481566872)"><path d="M-0.09 0.85 C-3.25 7.24, -15.79 31.79, -18.85 38.37 M-1.6 0.26 C-4.37 6.74, -13.5 32.98, -16.45 39.34" stroke="#1e1e1e" stroke-width="2" fill="none"></path></g></g><mask></mask><g stroke-linecap="round"><g transform="translate(592.3336549518162 162.6586859443023) rotate(9.273190233955166 -2.930014715064317 7.570452937907703)"><path d="M0.85 -0.59 C-0.28 1.81, -5.78 11.91, -6.71 14.3 M-0.16 1.71 C-0.94 4.3, -3.75 13.57, -4.57 15.73" stroke="#1e1e1e" stroke-width="2" fill="none"></path></g></g><mask></mask><g stroke-linecap="round"><g transform="translate(578.3452935384566 186.26713243121867) rotate(9.273190233955166 -5.269429630169952 10.930158271251003)"><path d="M-0.59 -1.07 C-2.37 2.61, -8.99 19.27, -10.78 22.94 M1.3 0.98 C-0.65 4.25, -10.15 17.83, -11.84 21.27" stroke="#1e1e1e" stroke-width="2" fill="none"></path></g></g><mask></mask><g stroke-linecap="round"><g transform="translate(308.1490529938046 252.01580718597415) rotate(9.273190233955166 -20.482015217025946 17.789841997655685)"><path d="M-2.51 -0.47 C-9.7 5.77, -33.92 29.46, -41.15 36.08 M1.33 -3.2 C-6.23 3.5, -35.31 32.51, -42.29 38.78" stroke="#1e1e1e" stroke-width="2" fill="none"></path></g></g><mask></mask><g stroke-linecap="round"><g transform="translate(246.07377839417268 291.5409899268798) rotate(9.273190233955166 -11.534055562883168 9.191743544836072)"><path d="M-0.2 0.87 C-3.91 3.91, -19.31 14.15, -22.87 17.18 M-1.77 0.28 C-5.04 3.52, -17.17 15.31, -20.54 18.1" stroke="#1e1e1e" stroke-width="2" fill="none"></path></g></g><mask></mask></svg>